.
..............................Site Info...........................

 -   http://www.scenetime.com  *_*   


Scenetime .Always on time . friendly online private torrent community ..

     We care to share . Join us on  http://www.scenetime.com 

    Be the first to get new release at  http://www.scenetime.com

        Seed back for speed


...................................NFO:.................................................[img]http://i.imgur.com/1ttav.jpg[/img]

[b]Men.in.Black.3.2012.TS.XViD.AC3-ADTRG[/b]

Agent J travels in time to MIB's early years in the 1960s, to stop an alien from assassinating his friend Agent K and changing history.  

[url]http://www.imdb.com/title/tt1409024/[/url]

Source -    Cam            -    Italians          Thanks
Source -    LiNe Audio     -    Dragon Exclusive  Thanks, Awesome work bro


Complete name                            : Men.in.Black.3.2012.TS.XViD.AC3-ADTRG.avi
Format                                   : AVI
Format/Info                              : Audio Video Interleave
File size                                : 1.06 GiB
Duration                                 : 1h 35mn
Overall bit rate                         : 1 603 Kbps
Writing library                          : VirtualDub build 34703/release

Video
ID                                       : 0
Format                                   : MPEG-4 Visual
Codec ID                                 : XVID
Bit rate                                 : 1 401 Kbps
Width                                    : 720 pixels
Height                                   : 368 pixels
Frame rate                               : 23.976 fps
Stream size                              : 952 MiB (87%)

Audio
ID                                       : 1
Format                                   : AC-3
Bit rate                                 : 192 Kbps
Channel(s)                               : 2 channels
Stream size                              : 131 MiB (12%)



Encoder - Guess Who
First of loads n loads of boom boom, then cleaned video a bit, Guess what, yep more boom boom, then on to syncing, quick easy job on this one , a few seconds missing twice in movies and a few minutes at end.
nothing important just closing scene, but the big ending is all there (dont want to ruin it). As for all you snot nose bitches that dont say thanks and only complain, this aint gonna be good enough for you, 
yes you can wait for bluray but i do think your to old to keep sleeping with mummy.everyone else enjoy and thanks for your support and kind words ;)

[img]http://i.imgur.com/mPWyb.jpg[/img]


[IMG]http://i.imgur.com/2739o.gif?1?8830[/IMG]

Dont fear the Atomic Dragon, Embrace it  :)


Greetz to DragonMaster,cOOkies,Mr Geek,DBratt420,AnimeKing,Jiinx,Cush,NoWoRRiEs Rayne, Mr & Mrs IrNbRu and the rest of the crew

Respect to CM8,Goon,Hope,mSD,InfernO,legend-rg and maybe a few more ;)